<?xml version="1.0" encoding="UTF-8" standalone="no"?>
<!-- Created with Inkscape (http://www.inkscape.org/) -->

<svg
   width="36.284mm"
   height="24.232956mm"
   viewBox="0 0 36.284 24.232958"
   version="1.1"
   id="svg1"
   inkscape:version="1.4.2 (ebf0e94, 2025-05-08)"
   sodipodi:docname="logo.svg"
   inkscape:export-filename="logo.png"
   inkscape:export-xdpi="96"
   inkscape:export-ydpi="96"
   xmlns:inkscape="http://www.inkscape.org/namespaces/inkscape"
   xmlns:sodipodi="http://sodipodi.sourceforge.net/DTD/sodipodi-0.dtd"
   xmlns="http://www.w3.org/2000/svg"
   xmlns:svg="http://www.w3.org/2000/svg">
  <sodipodi:namedview
     id="namedview1"
     pagecolor="#ffffff"
     bordercolor="#000000"
     borderopacity="0.25"
     inkscape:showpageshadow="2"
     inkscape:pageopacity="0.0"
     inkscape:pagecheckerboard="0"
     inkscape:deskcolor="#d1d1d1"
     inkscape:document-units="mm"
     inkscape:zoom="3.6453704"
     inkscape:cx="21.534163"
     inkscape:cy="49.78918"
     inkscape:window-width="2560"
     inkscape:window-height="1283"
     inkscape:window-x="0"
     inkscape:window-y="0"
     inkscape:window-maximized="1"
     inkscape:current-layer="layer1" />
  <defs
     id="defs1" />
  <g
     inkscape:label="Ebene 1"
     inkscape:groupmode="layer"
     id="layer1"
     transform="translate(-76.362829,-61.755586)">
    <path
       style="font-size:12.7px;font-family:'Liberation Serif';-inkscape-font-specification:'Liberation Serif, Normal';stroke-width:0.265"
       d="m 83.93937,65.250843 q 0.95498,0 1.401464,0.390674 0.452686,0.390674 0.452686,1.196826 v 3.937744 l 0.725537,0.15503 v 0.279052 h -1.599902 l -0.117823,-0.58291 q -0.706933,0.706934 -1.804541,0.706934 -1.494482,0 -1.494482,-1.736328 0,-0.582911 0.223242,-0.961182 0.229444,-0.384473 0.725537,-0.58291 0.496094,-0.204639 1.438672,-0.223242 l 0.874365,-0.02481 v -0.911567 q 0,-0.601514 -0.223242,-0.886768 -0.217041,-0.285254 -0.675928,-0.285254 -0.620117,0 -1.134814,0.291455 l -0.21084,0.725537 h -0.347265 v -1.27124 q 1.004589,-0.217041 1.767334,-0.217041 z m 0.824755,2.988965 -0.812353,0.02481 q -0.830957,0.03101 -1.128613,0.322461 -0.291455,0.291455 -0.291455,0.973584 0,1.091406 0.886767,1.091406 0.42168,0 0.725537,-0.09302 0.310059,-0.09922 0.620117,-0.248047 z m 6.046143,-3.013769 v 1.575097 H 90.543617 L 90.18395,66.119007 q -0.310059,0 -0.73794,0.08682 -0.42168,0.08061 -0.731738,0.217041 v 4.353222 l 0.998388,0.15503 v 0.279052 H 86.946938 V 70.93112 l 0.737939,-0.15503 v -4.960937 l -0.737939,-0.155029 v -0.279053 h 1.699121 l 0.05581,0.725537 q 0.372071,-0.310059 1.00459,-0.595313 0.638721,-0.285253 1.010791,-0.285253 z m 2.182812,6.108154 q -0.595312,0 -0.892969,-0.353467 -0.291455,-0.353467 -0.291455,-0.992188 v -4.086572 h -0.762744 v -0.279052 l 0.775147,-0.241846 0.626318,-1.32085 h 0.390674 v 1.32085 h 1.333252 v 0.520898 h -1.333252 v 3.974951 q 0,0.403077 0.179834,0.607715 0.186035,0.204639 0.483691,0.204639 0.359668,0 0.874365,-0.09922 v 0.403076 q -0.217041,0.148828 -0.626318,0.241846 -0.409277,0.09922 -0.756543,0.09922 z m 3.80752,-7.856885 q 0,0.272852 -0.198437,0.471289 -0.198438,0.198438 -0.477491,0.198438 -0.272851,0 -0.471289,-0.198438 -0.198437,-0.198437 -0.198437,-0.471289 0,-0.279053 0.198437,-0.47749 0.198438,-0.198438 0.471289,-0.198438 0.279053,0 0.477491,0.198438 0.198437,0.198437 0.198437,0.47749 z m -0.06201,7.298779 0.998389,0.15503 v 0.279052 h -3.019973 v -0.279052 l 0.992188,-0.15503 V 65.81515 l -0.824756,-0.155029 v -0.279053 h 1.85415 z m 5.72368,-1.203027 q 0,0.868164 -0.5519,1.314648 -0.54571,0.446485 -1.61851,0.446485 -0.434082,0 -0.961181,-0.09302 -0.520899,-0.08682 -0.818555,-0.198437 v -1.432471 h 0.279053 l 0.303857,0.812353 q 0.465088,0.42168 1.209226,0.42168 1.20303,0 1.20303,-1.029394 0,-0.756543 -0.94878,-1.079004 l -0.5519,-0.179834 q -0.626322,-0.204639 -0.911576,-0.415479 -0.285254,-0.21084 -0.440283,-0.514697 -0.155029,-0.310059 -0.155029,-0.744141 0,-0.768945 0.520898,-1.209228 0.5271,-0.446484 1.42007,-0.446484 0.63872,0 1.5999,0.192236 v 1.27124 h -0.29145 l -0.26045,-0.675928 q -0.32867,-0.291455 -1.0356,-0.291455 -0.502294,0 -0.768945,0.248047 -0.260449,0.248047 -0.260449,0.669727 0,0.353466 0.235645,0.595312 0.241845,0.241846 0.725539,0.403076 0.91157,0.310059 1.19062,0.452686 0.27906,0.142627 0.47129,0.353467 0.19844,0.204638 0.30386,0.471289 0.11162,0.26665 0.11162,0.657324 z m 2.53008,1.761133 q -0.59531,0 -0.89297,-0.353467 -0.29145,-0.353467 -0.29145,-0.992188 v -4.086572 h -0.76275 v -0.279052 l 0.77515,-0.241846 0.62632,-1.32085 h 0.39067 v 1.32085 h 1.33325 v 0.520898 h -1.33325 v 3.974951 q 0,0.403077 0.17984,0.607715 0.18603,0.204639 0.48369,0.204639 0.35967,0 0.87436,-0.09922 v 0.403076 q -0.21704,0.148828 -0.62632,0.241846 -0.40927,0.09922 -0.75654,0.09922 z"
       id="text1"
       aria-label="artist"
       inkscape:label="artist" />
    <path
       style="font-size:14.1111px;font-family:'Liberation Serif';-inkscape-font-specification:'Liberation Serif, Normal';stroke:#000000;stroke-width:0.265"
       d="m 92.727161,76.45037 q 0,3.410642 -3.031681,3.410642 -1.46072,0 -2.20486,-0.875054 -0.74414,-0.875054 -0.74414,-2.535588 0,-1.639864 0.74414,-2.508028 0.74414,-0.868163 2.259981,-0.868163 1.4745,0 2.22553,0.854383 0.75103,0.847493 0.75103,2.521808 z m -1.240233,0 q 0,-1.48828 -0.434082,-2.156628 -0.434081,-0.668348 -1.357366,-0.668348 -0.902615,0 -1.309136,0.640787 -0.39963,0.640787 -0.39963,2.184189 0,1.564072 0.406521,2.21864 0.413411,0.647677 1.302245,0.647677 0.909504,0 1.350476,-0.675238 0.440972,-0.675238 0.440972,-2.191079 z m 4.981604,-3.34863 q 1.061089,0 1.557182,0.434081 0.502984,0.434082 0.502984,1.329806 v 4.375268 l 0.806151,0.172255 v 0.310058 H 97.557182 L 97.426268,79.07553 q -0.785481,0.785482 -2.005044,0.785482 -1.660535,0 -1.660535,-1.929252 0,-0.647678 0.248047,-1.067979 0.254937,-0.427192 0.806152,-0.647678 0.551214,-0.227376 1.598523,-0.248046 l 0.971516,-0.02756 V 74.92764 q 0,-0.668348 -0.248047,-0.985297 -0.241156,-0.316948 -0.75103,-0.316948 -0.689019,0 -1.260904,0.323838 l -0.234266,0.806152 h -0.385851 v -1.412488 q 1.11621,-0.241156 1.963703,-0.241157 z m 0.916395,3.321069 -0.902614,0.02756 q -0.923285,0.03445 -1.254014,0.358289 -0.323839,0.323839 -0.323839,1.08176 0,1.212672 0.985297,1.212672 0.468532,0 0.806151,-0.103353 0.34451,-0.110243 0.689019,-0.275607 z m 6.717933,-3.34863 v 1.750107 h -0.29628 l -0.39963,-0.75792 q -0.34451,0 -0.81993,0.09646 -0.46853,0.08957 -0.81304,0.241157 v 4.83691 l 1.10932,0.172255 v 0.310058 h -3.073027 v -0.310058 l 0.819937,-0.172255 V 73.728744 L 99.810273,73.55649 v -0.310059 h 1.887907 l 0.062,0.806152 q 0.41342,-0.344509 1.11622,-0.661458 0.70969,-0.316948 1.1231,-0.316948 z m 5.10563,6.166716 q -0.77859,0.620117 -1.81901,0.620117 -2.65272,0 -2.65272,-3.31418 0,-1.701875 0.75103,-2.583819 0.75103,-0.888834 2.21175,-0.888834 0.74414,0 1.50895,0.158474 -0.0413,-0.227376 -0.0413,-1.143771 v -1.681205 l -1.08865,-0.165365 v -0.310058 h 2.23242 v 9.308641 l 0.79926,0.172255 v 0.310058 h -1.81901 z m -3.2315,-2.694063 q 0,1.309136 0.44097,1.956813 0.44098,0.640787 1.35048,0.640787 0.77859,0 1.39871,-0.268717 v -5.119408 q -0.61323,-0.117133 -1.39871,-0.117133 -1.79145,0 -1.79145,2.907658 z"
       id="text2"
       aria-label="oard" />
    <path
       style="font-size:19.7556px;font-family:'Liberation Serif';-inkscape-font-specification:'Liberation Serif, Normal';stroke:#000000;stroke-width:0.265"
       d="m 85.486965,76.214294 q 0,3.443725 -4.176844,6.704171 -1.678454,1.311895 -1.94855,1.311895 -0.270096,0 -0.270096,-0.376205 V 65.439389 h 0.530546 v 8.594844 q 0.954982,-1.061092 2.739546,-1.061092 1.331188,0 2.228293,0.954983 0.897105,0.945336 0.897105,2.28617 z m -1.745979,0 q 0,-0.974275 -0.327974,-1.620576 -0.424436,-0.848874 -1.302249,-0.848874 -1.09003,0 -1.803856,0.501607 -0.434083,0.299035 -0.569131,0.627009 -0.115755,0.26045 -0.115755,0.810288 v 7.774909 q 4.118965,-3.684882 4.118965,-7.244363 z"
       id="text3"
       aria-label="♭" />
  </g>
</svg>
